<?xml version="1.0" standalone="no"?>
<!DOCTYPE svg PUBLIC "-//W3C//DTD SVG 20010904//EN"
 "http://www.w3.org/TR/2001/REC-SVG-20010904/DTD/svg10.dtd">
<svg version="1.0" xmlns="http://www.w3.org/2000/svg"
 width="225.000000pt" height="225.000000pt" viewBox="0 0 225.000000 225.000000"
 preserveAspectRatio="xMidYMid meet">
<metadata>
Created by potrace 1.15, written by Peter Selinger 2001-2017
</metadata>
<g transform="translate(0.000000,225.000000) scale(0.100000,-0.100000)"
fill="#000000" stroke="none">
<path d="M821 2235 c-38 -17 -53 -20 -31 -5 20 13 5 13 -79 -1 -90 -14 -186
-49 -169 -61 9 -6 6 -7 -9 -3 -20 6 -96 -25 -113 -46 -3 -3 -16 -12 -29 -19
-36 -19 -46 -27 -133 -111 -43 -41 -78 -81 -78 -88 0 -11 3 -11 14 -2 12 10
13 8 9 -9 -4 -15 -9 -18 -16 -11 -16 16 -25 13 -32 -9 -3 -11 -12 -26 -19 -32
-11 -12 -76 -135 -76 -145 0 -2 4 -1 10 2 6 3 7 -1 4 -9 -3 -9 -9 -14 -14 -11
-18 11 -60 -194 -60 -292 0 -78 10 -149 19 -135 3 6 7 -15 7 -45 2 -55 11 -82
68 -205 28 -61 32 -66 45 -50 12 15 12 15 6 -7 -5 -16 -4 -21 4 -17 7 4 9 1 5
-8 -7 -18 44 -88 58 -80 6 4 8 1 6 -7 -6 -17 84 -104 162 -159 108 -74 269
-131 416 -146 65 -7 256 12 287 28 10 5 31 12 45 14 48 8 163 64 156 75 -12
20 40 -8 72 -38 20 -20 46 -36 57 -37 15 -1 22 -8 23 -22 2 -33 40 -67 63 -55
13 7 18 6 18 -4 0 -7 -7 -11 -16 -8 -9 3 83 -92 204 -211 124 -122 226 -214
233 -211 7 3 10 1 7 -5 -7 -12 26 -29 44 -22 8 3 11 0 7 -7 -7 -11 19 -15 79
-11 60 3 146 70 149 115 0 13 5 21 10 17 5 -3 7 2 3 11 -3 10 -2 17 3 17 17 0
11 72 -10 115 -22 45 -134 162 -151 157 -6 -1 -8 2 -5 6 8 13 -143 154 -156
146 -7 -4 -8 -2 -4 4 8 13 -61 79 -77 74 -4 -1 -6 1 -3 6 7 11 -210 225 -221
219 -5 -3 -8 15 -9 39 0 25 2 41 5 35 9 -14 70 121 90 199 32 129 31 314 -5
445 -22 79 -89 217 -138 283 -35 46 -59 71 -40 40 4 -7 3 -8 -4 -4 -7 4 -12
13 -12 20 0 17 -45 58 -54 49 -4 -5 -6 -3 -4 3 3 12 -54 64 -72 64 -6 0 -8 5
-5 10 6 9 0 12 -35 14 -8 1 -13 5 -12 10 5 13 -26 28 -40 20 -6 -4 -8 -3 -4 4
8 13 -100 66 -120 58 -9 -3 -12 -1 -9 4 3 6 4 10 1 10 -2 0 -32 7 -66 16 -34
8 -80 17 -103 19 -23 2 -60 6 -82 9 -26 4 -52 1 -74 -9z m148 -340 c74 -15
160 -52 194 -83 16 -14 20 -14 29 -2 8 13 9 13 5 -1 -6 -18 0 -27 26 -48 14
-11 20 -11 35 0 9 7 14 9 10 5 -4 -5 -2 -16 5 -25 11 -14 10 -14 -5 -2 -24 18
-23 6 3 -29 12 -15 27 -27 33 -26 6 2 8 1 3 -2 -4 -2 4 -25 18 -50 47 -90 59
-140 58 -257 0 -84 -4 -120 -17 -147 -10 -21 -15 -42 -11 -47 3 -6 1 -11 -4
-11 -6 0 -11 -7 -11 -15 0 -8 -4 -15 -10 -15 -5 0 -10 -5 -10 -12 0 -6 -20
-37 -45 -69 -24 -31 -42 -59 -40 -63 3 -3 2 -4 -1 -1 -10 7 -89 -54 -89 -68 0
-7 -9 -12 -20 -12 -11 0 -47 -11 -80 -24 -52 -21 -78 -25 -190 -26 -71 -1
-135 3 -141 7 -30 22 -136 68 -145 62 -5 -3 -9 -2 -8 3 4 20 -2 33 -15 33 -8
0 -35 24 -62 53 -26 28 -52 51 -58 49 -6 -2 -8 -1 -4 3 4 4 -6 34 -23 66 -99
198 -68 435 80 603 14 16 20 26 14 22 -7 -4 -13 -2 -13 4 0 6 8 9 18 6 10 -3
31 7 52 26 19 17 28 28 19 25 -9 -3 -16 0 -16 8 0 10 5 11 18 4 14 -7 33 -2
79 21 32 16 71 30 85 30 14 0 25 3 25 8 0 14 136 13 209 -3z"/>
</g>
</svg>
